<svg width="32" height="32" viewBox="0 0 32 32" fill="none" xmlns="http://www.w3.org/2000/svg">
<path fill-rule="evenodd" clip-rule="evenodd" d="M16.7591 5.81436C16.8992 6.54327 16.7621 7.53462 16.1026 8.19412C13.6293 10.6674 13.6293 14.6775 16.1026 17.1508C18.5759 19.6241 22.586 19.6241 25.0593 17.1508C25.6933 16.5168 26.6272 16.4202 27.2981 16.5795C27.6515 16.6634 28.0525 16.8436 28.3535 17.1853C28.685 17.5617 28.8339 18.071 28.7137 18.6121C28.2356 20.765 27.1585 22.8121 25.4853 24.4853C20.799 29.1716 13.201 29.1716 8.51472 24.4853C3.82843 19.799 3.82843 12.201 8.51472 7.51473C10.2623 5.76717 12.4175 4.67009 14.6749 4.22625C15.255 4.11221 15.7882 4.2911 16.1701 4.66176C16.5149 4.99641 16.6857 5.4327 16.7591 5.81436ZM14.803 6.24289C14.8154 6.34394 14.8105 6.45998 14.7849 6.56793C14.7543 6.69686 14.7077 6.76066 14.6884 6.7799C11.434 10.0343 11.434 15.3106 14.6884 18.565C17.9428 21.8194 23.2192 21.8194 26.4735 18.565C26.4732 18.5654 26.473 18.5655 26.473 18.5656C26.4731 18.5657 26.5024 18.5407 26.5821 18.5237C26.6143 18.5168 26.6479 18.5129 26.6813 18.5116C26.2499 20.1816 25.3806 21.7615 24.0711 23.0711C20.1658 26.9763 13.8342 26.9763 9.92893 23.0711C6.02369 19.1658 6.02369 12.8342 9.92893 8.92895C11.3203 7.5376 13.0171 6.64305 14.803 6.24289ZM26.8946 18.5453C26.8946 18.5453 26.8942 18.545 26.8932 18.5445L26.8946 18.5453Z" fill="#5F5F5F"/>
</svg>
