<svg width="32" height="32" viewBox="0 0 32 32" fill="none" xmlns="http://www.w3.org/2000/svg">
<path d="M16 3C16.5523 3 17 3.44772 17 4V6C17 6.55228 16.5523 7 16 7C15.4477 7 15 6.55228 15 6V4C15 3.44772 15.4477 3 16 3Z" fill="#5F5F5F"/>
<path fill-rule="evenodd" clip-rule="evenodd" d="M9 16C9 12.134 12.134 9 16 9C19.866 9 23 12.134 23 16C23 19.866 19.866 23 16 23C12.134 23 9 19.866 9 16ZM16 11C13.2386 11 11 13.2386 11 16C11 18.7614 13.2386 21 16 21C18.7614 21 21 18.7614 21 16C21 13.2386 18.7614 11 16 11Z" fill="#5F5F5F"/>
<path d="M17 26C17 25.4477 16.5523 25 16 25C15.4477 25 15 25.4477 15 26V28C15 28.5523 15.4477 29 16 29C16.5523 29 17 28.5523 17 28V26Z" fill="#5F5F5F"/>
<path d="M7 16C7 16.5523 6.55228 17 6 17H4C3.44772 17 3 16.5523 3 16C3 15.4477 3.44772 15 4 15H6C6.55228 15 7 15.4477 7 16Z" fill="#5F5F5F"/>
<path d="M28 17C28.5523 17 29 16.5523 29 16C29 15.4477 28.5523 15 28 15H26C25.4477 15 25 15.4477 25 16C25 16.5523 25.4477 17 26 17H28Z" fill="#5F5F5F"/>
<path d="M25.2071 6.79289C25.5976 7.18342 25.5976 7.81658 25.2071 8.20711L23.7071 9.70711C23.3166 10.0976 22.6834 10.0976 22.2929 9.70711C21.9024 9.31658 21.9024 8.68342 22.2929 8.29289L23.7929 6.79289C24.1834 6.40237 24.8166 6.40237 25.2071 6.79289Z" fill="#5F5F5F"/>
<path d="M6.79289 8.20711C6.40237 7.81658 6.40237 7.18342 6.79289 6.79289C7.18342 6.40237 7.81658 6.40237 8.20711 6.79289L9.70711 8.29289C10.0976 8.68342 10.0976 9.31658 9.70711 9.70711C9.31658 10.0976 8.68342 10.0976 8.29289 9.70711L6.79289 8.20711Z" fill="#5F5F5F"/>
<path d="M22.2929 23.7071L23.7929 25.2071C24.1834 25.5976 24.8166 25.5976 25.2071 25.2071C25.5976 24.8166 25.5976 24.1834 25.2071 23.7929L23.7071 22.2929C23.3166 21.9024 22.6834 21.9024 22.2929 22.2929C21.9024 22.6834 21.9024 23.3166 22.2929 23.7071Z" fill="#5F5F5F"/>
<path d="M9.70711 23.7071C10.0976 23.3166 10.0976 22.6834 9.70711 22.2929C9.31658 21.9024 8.68342 21.9024 8.29289 22.2929L6.79289 23.7929C6.40237 24.1834 6.40237 24.8166 6.79289 25.2071C7.18342 25.5976 7.81658 25.5976 8.20711 25.2071L9.70711 23.7071Z" fill="#5F5F5F"/>
</svg>
